<svg width="33" height="33" viewBox="0 0 33 33" fill="none" xmlns="http://www.w3.org/2000/svg">
<path d="M6.875 17.875H22.2337L15.5237 24.585C14.9875 25.1213 14.9875 26.0013 15.5237 26.5375C16.06 27.0738 16.9262 27.0738 17.4625 26.5375L26.5238 17.4763C26.6512 17.349 26.7523 17.1979 26.8213 17.0316C26.8903 16.8653 26.9259 16.687 26.9259 16.5069C26.9259 16.3268 26.8903 16.1485 26.8213 15.9821C26.7523 15.8158 26.6512 15.6647 26.5238 15.5375L17.4762 6.4625C17.3489 6.3352 17.1978 6.23422 17.0315 6.16533C16.8652 6.09643 16.6869 6.06097 16.5069 6.06097C16.3268 6.06097 16.1486 6.09643 15.9823 6.16533C15.8159 6.23422 15.6648 6.3352 15.5375 6.4625C15.4102 6.5898 15.3092 6.74093 15.2403 6.90726C15.1714 7.07358 15.136 7.25185 15.136 7.43188C15.136 7.61191 15.1714 7.79017 15.2403 7.9565C15.3092 8.12283 15.4102 8.27395 15.5375 8.40125L22.2337 15.125H6.875C6.11875 15.125 5.5 15.7438 5.5 16.5C5.5 17.2563 6.11875 17.875 6.875 17.875Z" fill="white"/>
</svg>
