<svg width="1920" height="1080" viewBox="0 0 1920 1080" fill="none" xmlns="http://www.w3.org/2000/svg">
<path fill-rule="evenodd" clip-rule="evenodd" d="M1519.66 -97.2108C1528.59 -151.686 1542.21 -206.876 1575.5 -250.913C1610.82 -297.638 1655.86 -354.494 1714.43 -354.87C1778.26 -355.279 1811.39 -266.945 1873.64 -252.826C1929.22 -240.22 1994.01 -314.513 2040.11 -281.004C2086.98 -246.941 2034.3 -158.825 2067.91 -111.631C2106.79 -57.0318 2205.28 -65.5083 2236.01 -5.93557C2264.15 48.6188 2243.19 119.913 2215.63 174.761C2188.55 228.636 2136.76 266.082 2084.34 295.875C2037.17 322.679 1981.28 322.627 1929.13 337.579C1878.09 352.215 1831.51 388.905 1778.68 383.515C1725.59 378.099 1686.2 334.352 1639.76 308.058C1589.65 279.684 1515.73 274.372 1492.7 221.59C1468.87 166.965 1521.4 107.673 1526.42 48.2869C1530.56 -0.706291 1511.7 -48.6914 1519.66 -97.2108Z" fill="#C37DDC"/>
<path fill-rule="evenodd" clip-rule="evenodd" d="M1501.66 -174.211C1510.59 -228.686 1524.21 -283.876 1557.5 -327.913C1592.82 -374.638 1637.86 -431.494 1696.43 -431.87C1760.26 -432.279 1793.39 -343.945 1855.64 -329.826C1911.22 -317.22 1976.01 -391.513 2022.11 -358.004C2068.98 -323.941 2016.3 -235.825 2049.91 -188.631C2088.79 -134.032 2187.28 -142.508 2218.01 -82.9356C2246.15 -28.3812 2225.19 42.9134 2197.63 97.7607C2170.55 151.636 2118.76 189.082 2066.34 218.875C2019.17 245.679 1963.28 245.627 1911.13 260.579C1860.09 275.215 1813.51 311.905 1760.68 306.515C1707.59 301.099 1668.2 257.352 1621.76 231.058C1571.65 202.684 1497.73 197.372 1474.7 144.59C1450.87 89.9649 1503.4 30.673 1508.42 -28.7131C1512.56 -77.7063 1493.7 -125.691 1501.66 -174.211Z" fill="#C993DC"/>
<path fill-rule="evenodd" clip-rule="evenodd" d="M65.346 868.338C76.5826 779.589 27.0562 678.859 75.2856 603.516C119.738 534.074 216.22 510.4 298.438 504.207C379.031 498.136 467.621 516.574 528.829 569.353C589.444 621.62 571.272 726.852 625.216 785.979C671.465 836.672 758.183 827.873 807.867 875.203C865.968 930.552 953.816 1000.88 931.813 1078.05C907.172 1164.47 781.609 1170.73 708.647 1223.18C665.398 1254.28 632.871 1296.12 588.185 1325.11C544.792 1353.27 498.602 1373.71 449.878 1391.07C394.177 1410.92 339.326 1437.67 280.263 1434.83C216.254 1431.76 142.124 1422.88 100.335 1374.3C57.6769 1324.71 78.8934 1247.67 64.3998 1183.88C52.2871 1130.57 21.4166 1082.36 21.5806 1027.69C21.7478 971.905 58.3391 923.679 65.346 868.338Z" fill="#8ED0B9"/>
<path fill-rule="evenodd" clip-rule="evenodd" d="M-32.654 834.338C-21.4174 745.589 -70.9438 644.859 -22.7144 569.516C21.7378 500.074 118.22 476.4 200.438 470.207C281.031 464.136 369.621 482.574 430.829 535.353C491.444 587.62 473.272 692.852 527.216 751.979C573.465 802.672 660.183 793.873 709.867 841.203C767.968 896.552 855.816 966.881 833.813 1044.05C809.172 1130.47 683.609 1136.73 610.647 1189.18C567.398 1220.28 534.871 1262.12 490.185 1291.11C446.792 1319.27 400.602 1339.71 351.878 1357.07C296.177 1376.92 241.326 1403.67 182.263 1400.83C118.254 1397.76 44.1236 1388.88 2.33461 1340.3C-40.3231 1290.71 -19.1066 1213.67 -33.6002 1149.88C-45.7129 1096.57 -76.5834 1048.36 -76.4194 993.688C-76.2522 937.905 -39.6609 889.679 -32.654 834.338Z" fill="#ACDAC9"/>
</svg>
