<svg width="32" height="286" viewBox="0 0 32 286" fill="none" xmlns="http://www.w3.org/2000/svg">
<path d="M8.832 195.528L8.448 195.288C7.704 196.44 7.224 198.192 7.224 199.752C7.224 202.992 8.688 205.104 10.944 205.104C17.04 205.104 14.16 195.024 19.92 195.072C22.104 195.072 23.52 197.112 23.52 200.28C23.52 202.296 22.656 204.408 21.312 205.68L21.648 206.016C23.064 204.624 24 202.392 24 200.28C24 196.824 22.392 194.592 19.92 194.592C13.68 194.544 16.56 204.624 10.944 204.624C8.976 204.624 7.704 202.704 7.704 199.752C7.704 198.264 8.136 196.608 8.832 195.528ZM13.584 181.589L13.248 181.277C12.216 182.357 11.592 183.845 11.592 185.501C11.592 188.957 14.184 191.525 17.784 191.525C21.408 191.525 24 188.957 24 185.501C24 183.677 23.28 182.093 22.056 181.013L21.72 181.325C22.872 182.333 23.52 183.797 23.52 185.501C23.52 188.717 21.168 191.069 17.784 191.069C14.424 191.069 12.072 188.717 12.072 185.501C12.072 183.941 12.648 182.621 13.584 181.589ZM14.976 176.294H11.592V176.774H24V176.294H17.208C14.04 176.078 12.144 174.35 12.072 171.542H11.592C11.64 173.894 12.864 175.55 14.976 176.294ZM11.592 164.033C11.592 167.489 14.184 170.057 17.784 170.057C21.408 170.057 24 167.489 24 164.033C24 160.577 21.408 158.009 17.784 158.009C14.184 158.009 11.592 160.577 11.592 164.033ZM12.072 164.033C12.072 160.817 14.424 158.489 17.784 158.489C21.168 158.489 23.52 160.817 23.52 164.033C23.52 167.249 21.168 169.577 17.784 169.577C14.424 169.577 12.072 167.249 12.072 164.033ZM6.192 153.99H24V153.51H6.192V153.99ZM6.192 147.99H24V147.51H6.192V147.99ZM7.224 137.243H7.704V131.483H24V131.003H7.704L7.704 125.243H7.224L7.224 137.243ZM11.592 119.572C11.592 123.028 14.184 125.596 17.784 125.596C21.408 125.596 24 123.028 24 119.572C24 116.116 21.408 113.548 17.784 113.548C14.184 113.548 11.592 116.116 11.592 119.572ZM12.072 119.572C12.072 116.356 14.424 114.028 17.784 114.028C21.168 114.028 23.52 116.356 23.52 119.572C23.52 122.788 21.168 125.116 17.784 125.116C14.424 125.116 12.072 122.788 12.072 119.572ZM7.224 102.022H24V91.1977H23.52V101.542H15.6V92.6377H15.12V101.542H7.704L7.704 91.5338H7.224L7.224 102.022ZM11.592 88.5444L17.568 84.1284L24 88.9044V88.3044L17.976 83.8404L24 79.3524V78.7524L17.568 83.5284L11.592 79.0884V79.6644L17.184 83.8164L11.592 87.9684V88.5444ZM11.592 69.1222C11.592 71.7142 13.032 73.7782 15.24 74.6662H11.592V75.1462H28.656V74.6662H20.352C22.56 73.7782 24 71.7142 24 69.1222C24 65.6422 21.384 63.0982 17.808 63.0982C14.208 63.0982 11.592 65.6422 11.592 69.1222ZM23.52 69.1222C23.52 72.3382 21.12 74.6662 17.808 74.6662C14.496 74.6662 12.072 72.3382 12.072 69.1222C12.072 65.9062 14.496 63.5782 17.808 63.5782C21.12 63.5782 23.52 65.9062 23.52 69.1222ZM6.192 59.0916H24V58.6116H6.192V59.0916ZM11.592 48.5796C11.592 52.0356 14.184 54.6036 17.784 54.6036C21.408 54.6036 24 52.0356 24 48.5796C24 45.1236 21.408 42.5556 17.784 42.5556C14.184 42.5556 11.592 45.1236 11.592 48.5796ZM12.072 48.5796C12.072 45.3636 14.424 43.0356 17.784 43.0356C21.168 43.0356 23.52 45.3636 23.52 48.5796C23.52 51.7956 21.168 54.1236 17.784 54.1236C14.424 54.1236 12.072 51.7956 12.072 48.5796ZM14.976 38.1769H11.592V38.6569H24V38.1769H17.208C14.04 37.9609 12.144 36.2329 12.072 33.4249H11.592C11.64 35.7769 12.864 37.4329 14.976 38.1769ZM23.52 25.9635C23.52 29.1555 21.168 31.4595 17.784 31.4595V20.2035C14.184 20.2035 11.592 22.5075 11.592 25.9635C11.592 29.3955 14.184 31.9395 17.784 31.9395C21.408 31.9395 24 29.3955 24 25.9635C24 24.0435 23.28 22.3635 22.056 21.2355L21.72 21.5715C22.872 22.6035 23.52 24.1635 23.52 25.9635ZM12.072 25.9635C12.072 22.8915 14.208 20.8995 17.304 20.6835V31.4355C14.208 31.2435 12.072 29.0115 12.072 25.9635Z" fill="black"/>
<line x1="16.5" y1="217" x2="16.5" y2="286" stroke="black"/>
<line x1="16.5794" y1="285.73" x2="25.5794" y2="271.73" stroke="black"/>
<line x1="7" y1="271.5" x2="26" y2="271.5" stroke="black"/>
</svg>
